# Made in Blockbench 4.9.4
mtllib phoenix_block.mtl

o cube
v 0.3125 2.7731355259248023 0.11801886141072593
v 0.3125 2.6057115242650757 -0.286178434062962
v 0.3125 1.8492559934135158 0.5007022937758157
v 0.3125 1.6818319917537892 0.09650499830212778
v -0.3125 2.6057115242650757 -0.286178434062962
v -0.3125 2.7731355259248023 0.11801886141072593
v -0.3125 1.6818319917537892 0.09650499830212778
v -0.3125 1.8492559934135158 0.5007022937758157
vt 0.25 0.5546875
vt 0.328125 0.5546875
vt 0.328125 0.4296875
vt 0.25 0.4296875
vt 0.4765625 0.53125
vt 0.53125 0.53125
vt 0.53125 0.40625
vt 0.4765625 0.40625
vt 0.46875 1
vt 0.546875 1
vt 0.546875 0.875
vt 0.46875 0.875
vt 0.328125 0.5
vt 0.3828125 0.5
vt 0.3828125 0.375
vt 0.328125 0.375
vt 0.609375 0.4765625
vt 0.53125 0.4765625
vt 0.53125 0.53125
vt 0.609375 0.53125
vt 0.609375 0.4765625
vt 0.53125 0.4765625
vt 0.53125 0.421875
vt 0.609375 0.421875
vn 0 -0.3826834323650897 -0.9238795325112867
vn 1 0 0
vn 0 0.3826834323650897 0.9238795325112867
vn -1 0 0
vn 0 0.9238795325112867 -0.3826834323650897
vn 0 -0.9238795325112867 0.3826834323650897
usemtl m_a65d24f4-0c5f-0e52-965a-8c266d4a9cd5
f 4/4/1 7/3/1 5/2/1 2/1/1
f 3/8/2 4/7/2 2/6/2 1/5/2
f 8/12/3 3/11/3 1/10/3 6/9/3
f 7/16/4 8/15/4 6/14/4 5/13/4
f 6/20/5 1/19/5 2/18/5 5/17/5
f 7/24/6 4/23/6 3/22/6 8/21/6
o cube
v 0.375 2.8967322745602444 0.14221424040830355
v 0.375 2.657555129332063 -0.4352104674112507
v 0.375 2.8967322745602444 0.14221424040830355
v 0.375 2.657555129332063 -0.4352104674112507
v -0.375 2.657555129332063 -0.4352104674112507
v -0.375 2.8967322745602444 0.14221424040830355
v -0.375 2.657555129332063 -0.4352104674112507
v -0.375 2.8967322745602444 0.14221424040830355
vt 0.5703125 0.609375
vt 0.4765625 0.609375
vt 0.4765625 0.6875
vt 0.5703125 0.6875
vt 0.5703125 0.609375
vt 0.4765625 0.609375
vt 0.4765625 0.53125
vt 0.5703125 0.53125
vn 0 0.9238795325112867 -0.3826834323650897
vn 0 -0.9238795325112867 0.3826834323650897
usemtl m_a65d24f4-0c5f-0e52-965a-8c266d4a9cd5
f 14/28/7 9/27/7 10/26/7 13/25/7
f 15/32/8 12/31/8 11/30/8 16/29/8
o cube
v 0.375 2.657555129332063 -0.4352104674112507
v 0.375 2.657555129332063 -0.4352104674112507
v 0.375 2.3688427754222863 -0.3156218947971602
v 0.375 2.3688427754222863 -0.3156218947971602
v -0.375 2.657555129332063 -0.4352104674112507
v -0.375 2.657555129332063 -0.4352104674112507
v -0.375 2.3688427754222863 -0.3156218947971602
v -0.375 2.3688427754222863 -0.3156218947971602
vt 0.546875 1
vt 0.640625 1
vt 0.640625 0.9609375
vt 0.546875 0.9609375
vt 0.546875 0.9609375
vt 0.640625 0.9609375
vt 0.640625 0.921875
vt 0.546875 0.921875
vn 0 -0.3826834323650897 -0.9238795325112867
vn 0 0.3826834323650897 0.9238795325112867
usemtl m_a65d24f4-0c5f-0e52-965a-8c266d4a9cd5
f 20/36/9 23/35/9 21/34/9 18/33/9
f 24/40/10 19/39/10 17/38/10 22/37/10
o cube
v 0.375 2.8967322745602444 0.14221424040830355
v 0.375 2.8967322745602444 0.14221424040830355
v 0.375 2.608019920650467 0.26180281302239405
v 0.375 2.608019920650467 0.26180281302239405
v -0.375 2.8967322745602444 0.14221424040830355
v -0.375 2.8967322745602444 0.14221424040830355
v -0.375 2.608019920650467 0.26180281302239405
v -0.375 2.608019920650467 0.26180281302239405
vt 0.546875 0.921875
vt 0.640625 0.921875
vt 0.640625 0.8828125
vt 0.546875 0.8828125
vt 0.5625 0.8828125
vt 0.65625 0.8828125
vt 0.65625 0.84375
vt 0.5625 0.84375
vn 0 -0.3826834323650897 -0.9238795325112867
vn 0 0.3826834323650897 0.9238795325112867
usemtl m_a65d24f4-0c5f-0e52-965a-8c266d4a9cd5
f 28/44/11 31/43/11 29/42/11 26/41/11
f 32/48/12 27/47/12 25/46/12 30/45/12
o cube
v 0.375 2.8967322745602444 0.14221424040830355
v 0.375 2.657555129332063 -0.4352104674112507
v 0.375 2.608019920650467 0.26180281302239405
v 0.375 2.3688427754222863 -0.3156218947971602
v 0.375 2.657555129332063 -0.4352104674112507
v 0.375 2.8967322745602444 0.14221424040830355
v 0.375 2.3688427754222863 -0.3156218947971602
v 0.375 2.608019920650467 0.26180281302239405
vt 0.234375 0.4296875
vt 0.3125 0.4296875
vt 0.3125 0.390625
vt 0.234375 0.390625
vt 0.5703125 0.7265625
vt 0.6484375 0.7265625
vt 0.6484375 0.6875
vt 0.5703125 0.6875
vn 1 0 0
vn -1 0 0
usemtl m_a65d24f4-0c5f-0e52-965a-8c266d4a9cd5
f 35/52/13 36/51/13 34/50/13 33/49/13
f 39/56/14 40/55/14 38/54/14 37/53/14
o cube
v -0.375 2.8967322745602444 0.14221424040830355
v -0.375 2.657555129332063 -0.4352104674112507
v -0.375 2.608019920650467 0.26180281302239405
v -0.375 2.3688427754222863 -0.3156218947971602
v -0.375 2.657555129332063 -0.4352104674112507
v -0.375 2.8967322745602444 0.14221424040830355
v -0.375 2.3688427754222863 -0.3156218947971602
v -0.375 2.608019920650467 0.26180281302239405
vt 0.5703125 0.6875
vt 0.6484375 0.6875
vt 0.6484375 0.6484375
vt 0.5703125 0.6484375
vt 0.5703125 0.6484375
vt 0.6484375 0.6484375
vt 0.6484375 0.609375
vt 0.5703125 0.609375
vn 1 0 0
vn -1 0 0
usemtl m_a65d24f4-0c5f-0e52-965a-8c266d4a9cd5
f 43/60/15 44/59/15 42/58/15 41/57/15
f 47/64/16 48/63/16 46/62/16 45/61/16
o cube
v 0.25 3.125 0
v 0.25 3.125 -0.5
v 0.25 2.6875 0
v 0.25 2.6875 -0.5
v -0.1875 3.125 -0.5
v -0.1875 3.125 0
v -0.1875 2.6875 -0.5
v -0.1875 2.6875 0
vt 0.5703125 0.609375
vt 0.625 0.609375
vt 0.625 0.5546875
vt 0.5703125 0.5546875
vt 0.5625 0.84375
vt 0.625 0.84375
vt 0.625 0.7890625
vt 0.5625 0.7890625
vt 0.53125 0.421875
vt 0.5859375 0.421875
vt 0.5859375 0.3671875
vt 0.53125 0.3671875
vt 0.1171875 0.4296875
vt 0.1796875 0.4296875
vt 0.1796875 0.375
vt 0.1171875 0.375
vt 0.234375 0.3671875
vt 0.1796875 0.3671875
vt 0.1796875 0.4296875
vt 0.234375 0.4296875
vt 0.625 0.7890625
vt 0.5703125 0.7890625
vt 0.5703125 0.7265625
vt 0.625 0.7265625
vn 0 0 -1
vn 1 0 0
vn 0 0 1
vn -1 0 0
vn 0 1 0
vn 0 -1 0
usemtl m_a65d24f4-0c5f-0e52-965a-8c266d4a9cd5
f 52/68/17 55/67/17 53/66/17 50/65/17
f 51/72/18 52/71/18 50/70/18 49/69/18
f 56/76/19 51/75/19 49/74/19 54/73/19
f 55/80/20 56/79/20 54/78/20 53/77/20
f 54/84/21 49/83/21 50/82/21 53/81/21
f 55/88/22 52/87/22 51/86/22 56/85/22
o cube
v -0.09375 2.9524264858219986 -0.4908769248641409
v -0.09375 2.832837913207908 -0.779589278773918
v -0.09375 2.6637141319122213 -0.37128835225005036
v -0.09375 2.544125559298131 -0.6600007061598274
v -0.09375 2.832837913207908 -0.779589278773918
v -0.09375 2.9524264858219986 -0.4908769248641409
v -0.09375 2.544125559298131 -0.6600007061598274
v -0.09375 2.6637141319122213 -0.37128835225005036
vt 0.3125 0.8515625
vt 0.3515625 0.8515625
vt 0.3515625 0.8125
vt 0.3125 0.8125
vt 0.234375 0.390625
vt 0.2734375 0.390625
vt 0.2734375 0.3515625
vt 0.234375 0.3515625
vn 1 0 0
vn -1 0 0
usemtl m_a65d24f4-0c5f-0e52-965a-8c266d4a9cd5
f 59/92/23 60/91/23 58/90/23 57/89/23
f 63/96/24 64/95/24 62/94/24 61/93/24
o cube
v 0.15625 2.9524264858219986 -0.4908769248641409
v 0.15625 2.832837913207908 -0.779589278773918
v 0.15625 2.6637141319122213 -0.37128835225005036
v 0.15625 2.544125559298131 -0.6600007061598274
v 0.15625 2.832837913207908 -0.779589278773918
v 0.15625 2.9524264858219986 -0.4908769248641409
v 0.15625 2.544125559298131 -0.6600007061598274
v 0.15625 2.6637141319122213 -0.37128835225005036
vt 0.2734375 0.390625
vt 0.3125 0.390625
vt 0.3125 0.3515625
vt 0.2734375 0.3515625
vt 0.609375 0.5078125
vt 0.6484375 0.5078125
vt 0.6484375 0.46875
vt 0.609375 0.46875
vn 1 0 0
vn -1 0 0
usemtl m_a65d24f4-0c5f-0e52-965a-8c266d4a9cd5
f 67/100/25 68/99/25 66/98/25 65/97/25
f 71/104/26 72/103/26 70/102/26 69/101/26
o cube
v 0.15625 2.832837913207908 -0.779589278773918
v 0.15625 2.832837913207908 -0.779589278773918
v 0.15625 2.544125559298131 -0.6600007061598274
v 0.15625 2.544125559298131 -0.6600007061598274
v -0.09375 2.832837913207908 -0.779589278773918
v -0.09375 2.832837913207908 -0.779589278773918
v -0.09375 2.544125559298131 -0.6600007061598274
v -0.09375 2.544125559298131 -0.6600007061598274
vt 0.5 0.40625
vt 0.53125 0.40625
vt 0.53125 0.3671875
vt 0.5 0.3671875
vt 0.625 0.765625
vt 0.65625 0.765625
vt 0.65625 0.7265625
vt 0.625 0.7265625
vn 0 -0.3826834323650897 -0.9238795325112867
vn 0 0.3826834323650897 0.9238795325112867
usemtl m_a65d24f4-0c5f-0e52-965a-8c266d4a9cd5
f 76/108/27 79/107/27 77/106/27 74/105/27
f 80/112/28 75/111/28 73/110/28 78/109/28
o cube
v 0.15625 2.9524264858219986 -0.4908769248641409
v 0.15625 2.832837913207908 -0.779589278773918
v 0.15625 2.9524264858219986 -0.4908769248641409
v 0.15625 2.832837913207908 -0.779589278773918
v -0.09375 2.832837913207908 -0.779589278773918
v -0.09375 2.9524264858219986 -0.4908769248641409
v -0.09375 2.832837913207908 -0.779589278773918
v -0.09375 2.9524264858219986 -0.4908769248641409
vt 0.359375 0.3359375
vt 0.328125 0.3359375
vt 0.328125 0.375
vt 0.359375 0.375
vt 0.65625 0.609375
vt 0.625 0.609375
vt 0.625 0.5703125
vt 0.65625 0.5703125
vn 0 0.9238795325112867 -0.3826834323650897
vn 0 -0.9238795325112867 0.3826834323650897
usemtl m_a65d24f4-0c5f-0e52-965a-8c266d4a9cd5
f 86/116/29 81/115/29 82/114/29 85/113/29
f 87/120/30 84/119/30 83/118/30 88/117/30
o cube
v 0.15625 2.6637141319122213 -0.37128835225005036
v 0.15625 2.591960988343767 -0.5445157645959167
v 0.15625 2.6637141319122213 -0.37128835225005036
v 0.15625 2.591960988343767 -0.5445157645959167
v -0.09375 2.591960988343767 -0.5445157645959167
v -0.09375 2.6637141319122213 -0.37128835225005036
v -0.09375 2.591960988343767 -0.5445157645959167
v -0.09375 2.6637141319122213 -0.37128835225005036
vt 0.6171875 0.3515625
vt 0.5859375 0.3515625
vt 0.5859375 0.375
vt 0.6171875 0.375
vt 0.6484375 0.375
vt 0.6171875 0.375
vt 0.6171875 0.3515625
vt 0.6484375 0.3515625
vn 0 0.9238795325112867 -0.3826834323650897
vn 0 -0.9238795325112867 0.3826834323650897
usemtl m_a65d24f4-0c5f-0e52-965a-8c266d4a9cd5
f 94/124/31 89/123/31 90/122/31 93/121/31
f 95/128/32 92/127/32 91/126/32 96/125/32
o cube
v 0.0625 3.3822412754544646 0.9130566777394677
v 0.0625 3.7649247078195547 -0.010822854771818935
v 0.0625 2.4583617429431777 0.5303732453743781
v 0.0625 2.8410451753082677 -0.39350628713690866
v 0.0625 3.7649247078195547 -0.010822854771818935
v 0.0625 3.3822412754544646 0.9130566777394677
v 0.0625 2.8410451753082677 -0.39350628713690866
v 0.0625 2.4583617429431777 0.5303732453743781
vt 0.3515625 0.75
vt 0.4765625 0.75
vt 0.4765625 0.625
vt 0.3515625 0.625
vt 0.3515625 0.625
vt 0.4765625 0.625
vt 0.4765625 0.5
vt 0.3515625 0.5
vn 1 0 0
vn -1 0 0
usemtl m_a65d24f4-0c5f-0e52-965a-8c266d4a9cd5
f 99/132/33 100/131/33 98/130/33 97/129/33
f 103/136/34 104/135/34 102/134/34 101/133/34
o cube
v 0 3.8125 0.5
v 0 3.8125 -0.5
v 0 2.8125 0.5
v 0 2.8125 -0.5
v 0 3.8125 -0.5
v 0 3.8125 0.5
v 0 2.8125 -0.5
v 0 2.8125 0.5
vt 0 0.5546875
vt 0.125 0.5546875
vt 0.125 0.4296875
vt 0 0.4296875
vt 0.125 0.5546875
vt 0.25 0.5546875
vt 0.25 0.4296875
vt 0.125 0.4296875
vn 1 0 0
vn -1 0 0
usemtl m_a65d24f4-0c5f-0e52-965a-8c266d4a9cd5
f 107/140/35 108/139/35 106/138/35 105/137/35
f 111/144/36 112/143/36 110/142/36 109/141/36
o cube
v 0.34375 1.5 0.09375
v 0.34375 1.5 -0.21875
v 0.34375 1.5 0.09375
v 0.34375 1.5 -0.21875
v 0.03125 1.5 -0.21875
v 0.03125 1.5 0.09375
v 0.03125 1.5 -0.21875
v 0.03125 1.5 0.09375
vt 0.6484375 0.4296875
vt 0.609375 0.4296875
vt 0.609375 0.46875
vt 0.6484375 0.46875
vt 0.15625 0.375
vt 0.1171875 0.375
vt 0.1171875 0.3359375
vt 0.15625 0.3359375
vn 0 1 0
vn 0 -1 0
usemtl m_a65d24f4-0c5f-0e52-965a-8c266d4a9cd5
f 118/148/37 113/147/37 114/146/37 117/145/37
f 119/152/38 116/151/38 115/150/38 120/149/38
o cube
v 0.34375 2.25 0.09375
v 0.34375 2.25 0.09375
v 0.34375 1.5 0.09375
v 0.34375 1.5 0.09375
v 0.03125 2.25 0.09375
v 0.03125 2.25 0.09375
v 0.03125 1.5 0.09375
v 0.03125 1.5 0.09375
vt 0.4140625 0.4375
vt 0.453125 0.4375
vt 0.453125 0.34375
vt 0.4140625 0.34375
vt 0 0.4296875
vt 0.0390625 0.4296875
vt 0.0390625 0.3359375
vt 0 0.3359375
vn 0 0 -1
vn 0 0 1
usemtl m_a65d24f4-0c5f-0e52-965a-8c266d4a9cd5
f 124/156/39 127/155/39 125/154/39 122/153/39
f 128/160/40 123/159/40 121/158/40 126/157/40
o cube
v -0.03125 1.5 0.09375
v -0.03125 1.5 -0.21875
v -0.03125 1.5 0.09375
v -0.03125 1.5 -0.21875
v -0.34375 1.5 -0.21875
v -0.34375 1.5 0.09375
v -0.34375 1.5 -0.21875
v -0.34375 1.5 0.09375
vt 0.6640625 0.8046875
vt 0.625 0.8046875
vt 0.625 0.84375
vt 0.6640625 0.84375
vt 0.6640625 0.8046875
vt 0.625 0.8046875
vt 0.625 0.765625
vt 0.6640625 0.765625
vn 0 1 0
vn 0 -1 0
usemtl m_a65d24f4-0c5f-0e52-965a-8c266d4a9cd5
f 134/164/41 129/163/41 130/162/41 133/161/41
f 135/168/42 132/167/42 131/166/42 136/165/42
o cube
v -0.03125 2.25 0.09375
v -0.03125 2.25 0.09375
v -0.03125 1.5 0.09375
v -0.03125 1.5 0.09375
v -0.34375 2.25 0.09375
v -0.34375 2.25 0.09375
v -0.34375 1.5 0.09375
v -0.34375 1.5 0.09375
vt 0.0390625 0.4296875
vt 0.078125 0.4296875
vt 0.078125 0.3359375
vt 0.0390625 0.3359375
vt 0.078125 0.4296875
vt 0.1171875 0.4296875
vt 0.1171875 0.3359375
vt 0.078125 0.3359375
vn 0 0 -1
vn 0 0 1
usemtl m_a65d24f4-0c5f-0e52-965a-8c266d4a9cd5
f 140/172/43 143/171/43 141/170/43 138/169/43
f 144/176/44 139/175/44 137/174/44 142/173/44
o wing
v -0.375 2.9968592167691144 0.22541260736238822
v -0.375 2.333946609406726 -0.4375
v -0.375 1.5826456543960195 1.6396261697354833
v -0.375 0.9197330470336311 0.9767135623730954
v -0.4375 2.333946609406726 -0.4375
v -0.4375 2.9968592167691144 0.22541260736238822
v -0.4375 0.9197330470336311 0.9767135623730954
v -0.4375 1.5826456543960195 1.6396261697354833
vt 0.46875 0.4375
vt 0.4765625 0.4375
vt 0.4765625 0.1875
vt 0.46875 0.1875
vt 0 0.8046875
vt 0.1171875 0.8046875
vt 0.1171875 0.5546875
vt 0 0.5546875
vt 0.4765625 0.40625
vt 0.484375 0.40625
vt 0.484375 0.15625
vt 0.4765625 0.15625
vt 0.1171875 0.8046875
vt 0.234375 0.8046875
vt 0.234375 0.5546875
vt 0.1171875 0.5546875
vt 0.3515625 0.8828125
vt 0.34375 0.8828125
vt 0.34375 1
vt 0.3515625 1
vt 0.1640625 0.375
vt 0.15625 0.375
vt 0.15625 0.2578125
vt 0.1640625 0.2578125
vn 0 -0.7071067811865476 -0.7071067811865475
vn 1 0 0
vn 0 0.7071067811865476 0.7071067811865475
vn -1 0 0
vn 0 0.7071067811865475 -0.7071067811865476
vn 0 -0.7071067811865475 0.7071067811865476
usemtl m_a65d24f4-0c5f-0e52-965a-8c266d4a9cd5
f 148/180/45 151/179/45 149/178/45 146/177/45
f 147/184/46 148/183/46 146/182/46 145/181/46
f 152/188/47 147/187/47 145/186/47 150/185/47
f 151/192/48 152/191/48 150/190/48 149/189/48
f 150/196/49 145/195/49 146/194/49 149/193/49
f 151/200/50 148/199/50 147/198/50 152/197/50
o wing
v 0.4375 2.9968592167691144 0.22541260736238822
v 0.4375 2.333946609406726 -0.4375
v 0.4375 1.5826456543960195 1.6396261697354833
v 0.4375 0.9197330470336311 0.9767135623730954
v 0.375 2.333946609406726 -0.4375
v 0.375 2.9968592167691144 0.22541260736238822
v 0.375 0.9197330470336311 0.9767135623730954
v 0.375 1.5826456543960195 1.6396261697354833
vt 0.484375 0.40625
vt 0.4921875 0.40625
vt 0.4921875 0.15625
vt 0.484375 0.15625
vt 0.234375 0.8046875
vt 0.3515625 0.8046875
vt 0.3515625 0.5546875
vt 0.234375 0.5546875
vt 0.4921875 0.40625
vt 0.5 0.40625
vt 0.5 0.15625
vt 0.4921875 0.15625
vt 0.3515625 1
vt 0.46875 1
vt 0.46875 0.75
vt 0.3515625 0.75
vt 0.171875 0.2578125
vt 0.1640625 0.2578125
vt 0.1640625 0.375
vt 0.171875 0.375
vt 0.1796875 0.375
vt 0.171875 0.375
vt 0.171875 0.2578125
vt 0.1796875 0.2578125
vn 0 -0.7071067811865476 -0.7071067811865475
vn 1 0 0
vn 0 0.7071067811865476 0.7071067811865475
vn -1 0 0
vn 0 0.7071067811865475 -0.7071067811865476
vn 0 -0.7071067811865475 0.7071067811865476
usemtl m_a65d24f4-0c5f-0e52-965a-8c266d4a9cd5
f 156/204/51 159/203/51 157/202/51 154/201/51
f 155/208/52 156/207/52 154/206/52 153/205/52
f 160/212/53 155/211/53 153/210/53 158/209/53
f 159/216/54 160/215/54 158/214/54 157/213/54
f 158/220/55 153/219/55 154/218/55 157/217/55
f 159/224/56 156/223/56 155/222/56 160/221/56
o tail
v 0.625 1.5039216110047446 1.5615806309596114
v 0.625 2.1018644740751977 0.11801886141072593
v 0.625 1.5039216110047446 1.5615806309596114
v 0.625 2.1018644740751977 0.11801886141072593
v -0.625 2.1018644740751977 0.11801886141072593
v -0.625 1.5039216110047446 1.5615806309596114
v -0.625 2.1018644740751977 0.11801886141072593
v -0.625 1.5039216110047446 1.5615806309596114
vt 0.15625 0.8046875
vt 0 0.8046875
vt 0 1
vt 0.15625 1
vt 0.3125 1
vt 0.15625 1
vt 0.15625 0.8046875
vt 0.3125 0.8046875
vn 0 0.9238795325112867 0.3826834323650897
vn 0 -0.9238795325112867 -0.3826834323650897
usemtl m_a65d24f4-0c5f-0e52-965a-8c266d4a9cd5
f 166/228/57 161/227/57 162/226/57 165/225/57
f 167/232/58 164/231/58 163/230/58 168/229/58
o cube
v 0.25 0.125 0.25
v 0.25 0.125 -0.25
v 0.25 0.0625 0.25
v 0.25 0.0625 -0.25
v -0.25 0.125 -0.25
v -0.25 0.125 0.25
v -0.25 0.0625 -0.25
v -0.25 0.0625 0.25
vt 0.5 0.3671875
vt 0.5625 0.3671875
vt 0.5625 0.359375
vt 0.5 0.359375
vt 0.640625 0.9921875
vt 0.703125 0.9921875
vt 0.703125 0.984375
vt 0.640625 0.984375
vt 0.640625 0.984375
vt 0.703125 0.984375
vt 0.703125 0.9765625
vt 0.640625 0.9765625
vt 0.640625 0.9765625
vt 0.703125 0.9765625
vt 0.703125 0.96875
vt 0.640625 0.96875
vt 0.4765625 0.4375
vt 0.4140625 0.4375
vt 0.4140625 0.5
vt 0.4765625 0.5
vn 0 0 -1
vn 1 0 0
vn 0 0 1
vn -1 0 0
vn 0 1 0
usemtl m_a65d24f4-0c5f-0e52-965a-8c266d4a9cd5
f 172/236/59 175/235/59 173/234/59 170/233/59
f 171/240/60 172/239/60 170/238/60 169/237/60
f 176/244/61 171/243/61 169/242/61 174/241/61
f 175/248/62 176/247/62 174/246/62 173/245/62
f 174/252/63 169/251/63 170/250/63 173/249/63
o cube
v 0.375 0.0625 0.375
v 0.375 0.0625 -0.375
v 0.375 0 0.375
v 0.375 0 -0.375
v -0.375 0.0625 -0.375
v -0.375 0.0625 0.375
v -0.375 0 -0.375
v -0.375 0 0.375
vt 0.609375 0.4296875
vt 0.703125 0.4296875
vt 0.703125 0.421875
vt 0.609375 0.421875
vt 0.625 0.5703125
vt 0.71875 0.5703125
vt 0.71875 0.5625
vt 0.625 0.5625
vt 0.625 0.5625
vt 0.71875 0.5625
vt 0.71875 0.5546875
vt 0.625 0.5546875
vt 0.640625 1
vt 0.734375 1
vt 0.734375 0.9921875
vt 0.640625 0.9921875
vt 0.5625 0.78125
vt 0.46875 0.78125
vt 0.46875 0.875
vt 0.5625 0.875
vt 0.5703125 0.78125
vt 0.4765625 0.78125
vt 0.4765625 0.6875
vt 0.5703125 0.6875
vn 0 0 -1
vn 1 0 0
vn 0 0 1
vn -1 0 0
vn 0 1 0
vn 0 -1 0
usemtl m_a65d24f4-0c5f-0e52-965a-8c266d4a9cd5
f 180/256/64 183/255/64 181/254/64 178/253/64
f 179/260/65 180/259/65 178/258/65 177/257/65
f 184/264/66 179/263/66 177/262/66 182/261/66
f 183/268/67 184/267/67 182/266/67 181/265/67
f 182/272/68 177/271/68 178/270/68 181/269/68
f 183/276/69 180/275/69 179/274/69 184/273/69
o cube
v 0.5 1.5 0.09375
v 0.5 1.5 -0.09375
v 0.5 1.3125 0.09375
v 0.5 1.3125 -0.09375
v -0.5 1.5 -0.09375
v -0.5 1.5 0.09375
v -0.5 1.3125 -0.09375
v -0.5 1.3125 0.09375
vt 0.5703125 0.5546875
vt 0.6953125 0.5546875
vt 0.6953125 0.53125
vt 0.5703125 0.53125
vt 0.328125 0.5546875
vt 0.3515625 0.5546875
vt 0.3515625 0.53125
vt 0.328125 0.53125
vt 0.5859375 0.421875
vt 0.7109375 0.421875
vt 0.7109375 0.3984375
vt 0.5859375 0.3984375
vt 0.328125 0.53125
vt 0.3515625 0.53125
vt 0.3515625 0.5078125
vt 0.328125 0.5078125
vt 0.7109375 0.375
vt 0.5859375 0.375
vt 0.5859375 0.3984375
vt 0.7109375 0.3984375
vt 0.734375 0.53125
vt 0.609375 0.53125
vt 0.609375 0.5078125
vt 0.734375 0.5078125
vn 0 0 -1
vn 1 0 0
vn 0 0 1
vn -1 0 0
vn 0 1 0
vn 0 -1 0
usemtl m_a65d24f4-0c5f-0e52-965a-8c266d4a9cd5
f 188/280/70 191/279/70 189/278/70 186/277/70
f 187/284/71 188/283/71 186/282/71 185/281/71
f 192/288/72 187/287/72 185/286/72 190/285/72
f 191/292/73 192/291/73 190/290/73 189/289/73
f 190/296/74 185/295/74 186/294/74 189/293/74
f 191/300/75 188/299/75 187/298/75 192/297/75
o cube
v 0.125 1.3125 0.0625
v 0.125 1.3125 -0.0625
v 0.125 0.125 0.0625
v 0.125 0.125 -0.0625
v -0.125 1.3125 -0.0625
v -0.125 1.3125 0.0625
v -0.125 0.125 -0.0625
v -0.125 0.125 0.0625
vt 0.3125 1
vt 0.34375 1
vt 0.34375 0.8515625
vt 0.3125 0.8515625
vt 0.453125 0.4375
vt 0.46875 0.4375
vt 0.46875 0.2890625
vt 0.453125 0.2890625
vt 0.3828125 0.5
vt 0.4140625 0.5
vt 0.4140625 0.3515625
vt 0.3828125 0.3515625
vt 0.3125 0.4296875
vt 0.328125 0.4296875
vt 0.328125 0.28125
vt 0.3125 0.28125
vn 0 0 -1
vn 1 0 0
vn 0 0 1
vn -1 0 0
usemtl m_a65d24f4-0c5f-0e52-965a-8c266d4a9cd5
f 196/304/76 199/303/76 197/302/76 194/301/76
f 195/308/77 196/307/77 194/306/77 193/305/77
f 200/312/78 195/311/78 193/310/78 198/309/78
f 199/316/79 200/315/79 198/314/79 197/313/79